#!OML:ASF H:\Dans Jumps\Project 1\Capture day 1\Session 1\subject.ASF
:FULLY-SPECIFIED
:DEGREES
312
root 0.462011 15.3058 -14.5388 27.528 2.93482 -1.18724
lowerback 18.13 0.173477 -1.61308
upperback 1.42501 0.156834 2.71677
thorax -8.65063 0.193715 3.82818
lowerneck -21.49 -0.542494 -2.36639
upperneck 7.95975 -0.139088 0.540263
head 5.85268 -0.101355 0.535736
rclavicle -6.75868e-015 6.16232e-015
rhumerus -39.3639 -18.706 -69.9423
rradius 20.4719
rwrist 35.7208
rhand -18.7624 -25.3356
rfingers 7.12502
rthumb 7.53446 -55.1814
lclavicle -6.75868e-015 6.16232e-015
lhumerus -33.9324 13.8473 78.3595
lradius 8.11267
lwrist -5.89313
lhand -26.1216 -5.63539
lfingers 7.12502
lthumb 0.428284 24.3439
rfemur -63.5069 -0.545953 22.147
rtibia 69.8723
rfoot -32.5317 -17.0001
rtoes 2.12915
lfemur -63.8099 3.47622 -21.2773
ltibia 68.687
lfoot -27.7018 20.499
ltoes -9.44736
313
root 0.45458 15.2733 -14.4705 27.627 2.81442 -1.21228
lowerback 18.26 0.254874 -1.73286
upperback 1.23064 0.239954 2.70014
thorax -8.94299 0.245365 3.86336
lowerneck -21.7917 -0.578568 -2.40487
upperneck 8.16828 -0.178117 0.615472
head 5.96736 -0.116232 0.561989
rclavicle 7.95139e-016 1.49089e-014
rhumerus -38.6552 -18.8631 -70.073
rradius 20.2508
rwrist 36.2142
rhand -19.0414 -25.1517
rfingers 7.12502
rthumb 7.2652 -55.0069
lclavicle 7.95139e-016 1.49089e-014
lhumerus -32.9078 14.4019 78.4252
lradius 7.23473
lwrist -6.64902
lhand -26.5281 -5.66749
lfingers 7.12502
lthumb 0.0357156 24.3122
rfemur -63.573 -0.479983 22.1934
rtibia 70.2798
rfoot -32.4199 -17.2449
rtoes 1.95962
lfemur -63.8857 3.82169 -21.3403
ltibia 69.1309
lfoot -27.678 20.2494
ltoes -9.89897
314
root 0.447198 15.239 -14.3983 27.6769 2.68621 -1.25777
lowerback 18.3695 0.335092 -1.84131
upperback 1.04487 0.323386 2.68484
thorax -9.21566 0.296606 3.89244
lowerneck -22.1004 -0.59789 -2.40878
upperneck 8.37265 -0.200183 0.659582
head 6.08166 -0.124165 0.574571
rclavicle -4.37326e-015 1.27222e-014
rhumerus -37.8734 -19.0184 -70.2316
rradius 20.0987
rwrist 36.7239
rhand -19.3007 -25.0006
rfingers 7.12502
rthumb 7.0149 -54.8644
lclavicle -4.37326e-015 1.27222e-014
lhumerus -31.8061 14.9647 78.5032
lradius 6.39859
lwrist -7.34829
lhand -26.8301 -5.62527
lfingers 7.12502
lthumb -0.255993 24.3543
rfemur -63.579 -0.454494 22.2905
rtibia 70.7057
rfoot -32.3683 -17.5057
rtoes 1.66764
lfemur -63.9141 4.24756 -21.4062
ltibia 69.6195
lfoot -27.7409 19.9976
ltoes -10.6738
315
root 0.439905 15.2038 -14.3223 27.6831 2.54679 -1.32397
lowerback 18.4517 0.415124 -1.94039
upperback 0.865511 0.408339 2.67123
thorax -9.46715 0.348013 3.91661
lowerneck -22.4015 -0.59833 -2.373
upperneck 8.56382 -0.203828 0.667744
head 6.19032 -0.124739 0.571261
rclavicle 8.94531e-015 -4.96962e-015
rhumerus -37.0193 -19.1571 -70.4256
rradius 20.0385
rwrist 37.2226
rhand -19.5346 -24.9168
rfingers 7.12502
rthumb 6.78906 -54.788
lclavicle 8.94531e-015 -4.96962e-015
lhumerus -30.6502 15.5309 78.5879
lradius 5.66262
lwrist -8.02724
lhand -27.0907 -5.52856
lfingers 7.12502
lthumb -0.507699 24.4506
rfemur -63.5199 -0.458971 22.4307
rtibia 71.1366
rfoot -32.3951 -17.7456
rtoes 1.23718
lfemur -63.8945 4.74983 -21.4714
ltibia 70.1455
lfoot -27.8892 19.7706
ltoes -11.8069
316
root 0.432811 15.1687 -14.242 27.6406 2.39401 -1.41223
lowerback 18.5091 0.495064 -2.03064
upperback 0.695015 0.495176 2.66138
thorax -9.69599 0.3997 3.93845
lowerneck -22.6845 -0.579988 -2.30998
upperneck 8.73296 -0.188131 0.654657
head 6.28881 -0.116683 0.558933
rclavicle -7.7526e-015 1.21259e-014
rhumerus -36.076 -19.2563 -70.6672
rradius 20.0697
rwrist 37.6742
rhand -19.7784 -24.9093
rfingers 7.12502
rthumb 6.55372 -54.7879
lclavicle -7.7526e-015 1.21259e-014
lhumerus -29.453 16.1004 78.6754
lradius 5.0634
lwrist -8.71507
lhand -27.3723 -5.46281
lfingers 7.12502
lthumb -0.779633 24.5155
rfemur -63.381 -0.48347 22.6076
rtibia 71.5556
rfoot -32.496 -17.9645
rtoes 0.579477
lfemur -63.8089 5.32131 -21.5255
ltibia 70.695
lfoot -28.1187 19.5651
ltoes -13.2525
317
root 0.425524 15.134 -14.1587 27.5573 2.23002 -1.51567
lowerback 18.5418 0.574514 -2.11756
upperback 0.531474 0.582381 2.65502
thorax -9.90422 0.451214 3.96133
lowerneck -22.9358 -0.549801 -2.23839
upperneck 8.86867 -0.159957 0.638465
head 6.37142 -0.102357 0.545699
rclavicle -7.95139e-016 1.05356e-014
rhumerus -35.0353 -19.2839 -70.9733
rradius 20.2093
rwrist 38.0157
rhand -20.0228 -24.9801
rfingers 7.12502
rthumb 6.31784 -54.8659
lclavicle -7.95139e-016 1.05356e-014
lhumerus -28.2136 16.669 78.7634
lradius 4.62847
lwrist -9.43509
lhand -27.5725 -5.31044
lfingers 7.12502
lthumb -0.972995 24.6671
rfemur -63.1684 -0.515981 22.8072
rtibia 71.9498
rfoot -32.6638 -18.1669
rtoes -0.357122
lfemur -63.6572 5.93871 -21.5571
ltibia 71.2494
lfoot -28.42 19.3637
ltoes -14.8794
318
root 0.418465 15.1019 -14.0714 27.4369 2.06362 -1.63058
lowerback 18.545 0.64714 -2.19548
upperback 0.370688 0.663137 2.65299
thorax -10.0928 0.499144 3.98487
lowerneck -23.1671 -0.515393 -2.18872
upperneck 8.99583 -0.124774 0.65137
head 6.44819 -0.0827174 0.546365
rclavicle 3.37934e-015 -3.37934e-015
rhumerus -33.8982 -19.2351 -71.3362
rradius 20.4521
rwrist 38.2247
rhand -20.2596 -25.0983
rfingers 7.12502
rthumb 6.08923 -54.9908
lclavicle 3.37934e-015 -3.37934e-015
lhumerus -26.9474 17.2389 78.846
lradius 4.36264
lwrist -10.1684
lhand -27.7289 -5.16892
lfingers 7.12502
lthumb -1.12403 24.8079
rfemur -62.8672 -0.563106 23.0232
rtibia 72.2989
rfoot -32.8857 -18.3641
rtoes -1.54144
lfemur -63.4234 6.57746 -21.556
ltibia 71.7814
lfoot -28.7681 19.157
ltoes -16.5317
319
root 0.411392 15.073 -13.9812 27.2874 1.91377 -1.7494
lowerback 18.5226 0.705761 -2.25721
upperback 0.206555 0.729604 2.65459
thorax -10.27 0.53963 4.00656
lowerneck -23.3724 -0.482956 -2.16787
upperneck 9.12191 -0.0897351 0.699411
head 6.5207 -0.0609325 0.563225
rclavicle 3.97569e-015 -1.13307e-014
rhumerus -32.6751 -19.081 -71.7612
rradius 20.8126
rwrist 38.2582
rhand -20.4801 -25.2371
rfingers 7.12502
rthumb 5.87632 -55.1356
lclavicle 3.97569e-015 -1.13307e-014
lhumerus -25.6533 17.8035 78.9178
lradius 4.27893
lwrist -10.8747
lhand -27.8098 -5.02196
lfingers 7.12502
lthumb -1.20221 24.9544
rfemur -62.4805 -0.62873 23.248
rtibia 72.5894
rfoot -33.1543 -18.5531
rtoes -2.86627
lfemur -63.1143 7.20693 -21.5183
ltibia 72.2675
lfoot -29.1285 18.9432
ltoes -18.0613
320
root 0.404345 15.049 -13.8882 27.113 1.78835 -1.86204
lowerback 18.47 0.746457 -2.30368
upperback 0.0390137 0.776216 2.65678
thorax -10.4324 0.569895 4.02515
lowerneck -23.5644 -0.458928 -2.19017
upperneck 9.26783 -0.0607267 0.79626
head 6.59789 -0.039156 0.602435
rclavicle -1.27222e-014 1.11319e-014
rhumerus -31.378 -18.8105 -72.2415
rradius 21.301
rwrist 38.0984
rhand -20.6514 -25.3775
rfingers 7.12502
rthumb 5.71088 -55.2805
lclavicle -1.27222e-014 1.11319e-014
lhumerus -24.3386 18.3576 78.9728
lradius 4.4009
lwrist -11.5042
lhand -27.8357 -4.95765
lfingers 7.12502
lthumb -1.22727 25.0186
rfemur -62.0046 -0.712918 23.4687
rtibia 72.8022
rfoot -33.4373 -18.7573
rtoes -4.2866
lfemur -62.7271 7.80885 -21.458
ltibia 72.6831
lfoot -29.4716 18.7425
ltoes -19.3887
321
root 0.397266 15.0314 -13.7927 26.9122 1.6987 -1.95955
lowerback 18.3937 0.766376 -2.33421
upperback -0.135013 0.799078 2.65725
thorax -10.5865 0.588125 4.03897
lowerneck -23.7442 -0.44696 -2.24801
upperneck 9.45479 -0.043224 0.930696
head 6.68699 -0.0208458 0.658552
rclavicle -6.95746e-015 -3.57812e-015
rhumerus -30.0406 -18.4253 -72.7559
rradius 21.9337
rwrist 37.7487
rhand -20.764 -25.508
rfingers 7.12502
rthumb 5.6022 -55.4139
lclavicle -6.95746e-015 -3.57812e-015
lhumerus -23.0422 18.8869 78.9971
lradius 4.7799
lwrist -12.0148
lhand -27.7891 -5.00633
lfingers 7.12502
lthumb -1.18224 24.9701
rfemur -61.428 -0.822027 23.6755
rtibia 72.9194
rfoot -33.7242 -18.9644
rtoes -5.61448
lfemur -62.2565 8.37211 -21.3942
ltibia 73.0059
lfoot -29.7735 18.5687
ltoes -20.4841
322
root 0.390086 15.022 -13.6949 26.6763 1.64411 -2.03593
lowerback 18.3021 0.766492 -2.35554
upperback -0.312454 0.797625 2.65397
thorax -10.7336 0.594278 4.0499
lowerneck -23.9114 -0.436319 -2.30696
upperneck 9.69307 -0.0281464 1.06708
head 6.79128 -0.00368225 0.715562
rclavicle -4.37326e-015 -2.40529e-014
rhumerus -28.7018 -17.8867 -73.2971
rradius 22.7465
rwrist 37.1831
rhand -20.8328 -25.644
rfingers 7.12502
rthumb 5.5358 -55.5517
lclavicle -4.37326e-015 -2.40529e-014
lhumerus -21.8019 19.3826 78.9737
lradius 5.42751
lwrist -12.4295
lhand -27.816 -5.36313
lfingers 7.12502
lthumb -1.20817 24.6132
rfemur -60.7324 -0.951958 23.8582
rtibia 72.9203
rfoot -33.9991 -19.17
rtoes -6.77545
lfemur -61.6879 8.90032 -21.3477
ltibia 73.215
lfoot -30.029 18.4237
ltoes -21.3123
323
root 0.382697 15.0228 -13.5945 26.3995 1.62466 -2.08358
lowerback 18.1966 0.748124 -2.37736
upperback -0.492804 0.771237 2.64529
thorax -10.8737 0.588516 4.06186
lowerneck -24.0535 -0.424804 -2.35034
upperneck 9.99266 -0.0151169 1.18536
head 6.91226 0.0111792 0.764278
rclavicle 6.16232e-015 3.02153e-014
rhumerus -27.4149 -17.1735 -73.8432
rradius 23.7742
rwrist 36.3924
rhand -20.8606 -25.8156
rfingers 7.12502
rthumb 5.50893 -55.7239
lclavicle 6.16232e-015 3.02153e-014
lhumerus -20.6591 19.8316 78.8812
lradius 6.39346
lwrist -12.658
lhand -27.7346 -5.84596
lfingers 7.12502
lthumb -1.12958 24.1308
rfemur -59.8972 -1.10348 24.0059
rtibia 72.7838
rfoot -34.2651 -19.3402
rtoes -7.65085
lfemur -61.0034 9.39659 -21.3354
ltibia 73.2851
lfoot -30.2096 18.3163
ltoes -21.9127
